<svg width="73" height="76" viewBox="0 0 73 76" fill="none" xmlns="http://www.w3.org/2000/svg">
<path fill-rule="evenodd" clip-rule="evenodd" d="M72.6174 3.3206L72.7631 3.28157L72.0942 0.785156L70.5684 1.19398L70.5447 1.17021L70.5035 1.21137L0.768066 19.8969L1.39844 22.2495L1.36068 22.317L1.42638 22.3538L1.43698 22.3933L1.47765 22.3824L33.8301 40.4757L51.4516 73.3374L51.2618 74.0455L51.9268 74.2237L52.7918 75.8368L55.0695 74.6154L54.2128 73.0179L72.87 3.38829L72.6174 3.3206ZM66.8485 4.86637L5.0574 21.4232L34.0675 37.6473L66.8485 4.86637ZM36.1105 39.2594L69.5402 5.82968L52.4287 69.6907L36.1105 39.2594Z" fill="white"/>
</svg>
