<svg width="75" height="74" viewBox="0 0 75 74" fill="none" xmlns="http://www.w3.org/2000/svg">
<path fill-rule="evenodd" clip-rule="evenodd" d="M26.8841 33.3063L35.2927 41.7149L35.2927 2.66163H12.0324C7.34247 2.66163 3.54053 6.46356 3.54053 11.1535V62.4738C3.54053 67.1637 7.34247 70.9657 12.0324 70.9657H63.3527C68.0426 70.9657 71.8446 67.1637 71.8446 62.4738V11.1535C71.8446 6.46356 68.0426 2.66163 63.3527 2.66163H37.8772V41.9072L47.9367 31.8477L49.7642 33.6752L38.1633 45.2761L38.1397 45.2526L36.6576 46.7348L25.0566 35.1338L26.8841 33.3063ZM0.956055 11.1535C0.956055 5.0362 5.9151 0.0771513 12.0324 0.0771513L35.2927 0.0771484H37.8772L63.3527 0.0771513C69.47 0.0771513 74.4291 5.03619 74.4291 11.1535V62.4738C74.4291 68.5911 69.47 73.5501 63.3527 73.5501H12.0324C5.9151 73.5501 0.956055 68.5911 0.956055 62.4738V11.1535Z" fill="white"/>
</svg>
