<svg width="76" height="75" viewBox="0 0 76 75" fill="none" xmlns="http://www.w3.org/2000/svg">
<path fill-rule="evenodd" clip-rule="evenodd" d="M72.5181 37.8137C72.5181 56.8793 57.0624 72.335 37.9968 72.335C18.9313 72.335 3.47559 56.8793 3.47559 37.8137C3.47559 18.7482 18.9313 3.29249 37.9968 3.29249C57.0624 3.29249 72.5181 18.7482 72.5181 37.8137ZM75.1025 37.8137C75.1025 58.3066 58.4897 74.9194 37.9968 74.9194C17.5039 74.9194 0.891113 58.3066 0.891113 37.8137C0.891113 17.3208 17.5039 0.708008 37.9968 0.708008C58.4897 0.708008 75.1025 17.3208 75.1025 37.8137ZM28.305 21.6665L56.2728 37.8137L28.305 53.9609V21.6665ZM30.8895 26.143L51.1038 37.8137L30.8895 49.4844L30.8895 26.143Z" fill="white"/>
</svg>
