<svg xmlns="http://www.w3.org/2000/svg" xmlns:xlink="http://www.w3.org/1999/xlink" width="200" height="19" viewBox="0 0 205 19" version="1.1"><g id="surface1"><path style=" stroke:none;fill-rule:evenodd;fill:rgb(81.960784%,81.960784%,81.960784%);fill-opacity:1;" d="M 204.675781 9.613281 L 204.675781 0 L 196.761719 0 L 196.761719 3.265625 L 201.410156 3.265625 L 201.410156 6.34375 L 196.761719 6.34375 L 196.761719 9.613281 C 200.34375 9.613281 204.675781 9.613281 204.675781 9.613281 Z M 196.761719 15.894531 L 204.675781 15.894531 L 204.675781 12.628906 C 204.675781 12.628906 200.34375 12.628906 196.761719 12.628906 Z M 196.761719 0 L 196.761719 3.265625 L 192.054688 3.265625 L 192.054688 6.34375 L 196.761719 6.34375 L 196.761719 9.613281 C 194.25 9.613281 192.117188 9.613281 192.054688 9.613281 L 192.054688 12.628906 C 192.117188 12.628906 194.25 12.628906 196.761719 12.628906 L 196.761719 15.894531 L 188.789062 15.894531 L 188.789062 0 Z M 196.761719 0 " /><path style=" stroke:none;fill-rule:evenodd;fill:rgb(81.960784%,81.960784%,81.960784%);fill-opacity:1;" d="M 26.871094 15.894531 L 34.753906 15.894531 L 34.753906 0 L 26.871094 0 L 26.871094 3.265625 L 31.5 3.265625 L 31.5 12.628906 L 26.871094 12.628906 Z M 18.992188 0 L 26.871094 0 L 26.871094 3.265625 L 22.179688 3.265625 L 22.179688 12.628906 L 26.871094 12.628906 L 26.871094 15.894531 L 18.992188 15.894531 Z M 18.992188 0 " /><path style=" stroke:none;fill-rule:evenodd;fill:rgb(81.960784%,81.960784%,81.960784%);fill-opacity:1;" d="M 185.683594 9.613281 L 185.683594 0 L 177.707031 0 L 177.707031 3.265625 L 182.417969 3.265625 L 182.417969 6.34375 L 177.707031 6.34375 L 177.707031 9.613281 L 179.277344 9.613281 C 179.277344 9.675781 179.277344 12.753906 179.277344 12.753906 L 182.417969 12.753906 L 182.417969 15.894531 L 185.683594 15.894531 L 185.683594 12.628906 L 182.542969 12.628906 L 182.542969 9.613281 C 182.605469 9.613281 185.683594 9.613281 185.683594 9.613281 Z M 177.707031 0 L 177.707031 3.265625 L 173.0625 3.265625 L 173.0625 6.34375 L 177.707031 6.34375 L 177.707031 9.613281 L 173.0625 9.613281 C 173.0625 9.675781 173.0625 15.894531 173.0625 15.894531 L 169.796875 15.894531 L 169.796875 0 Z M 177.707031 0 " /><path style=" stroke:none;fill-rule:evenodd;fill:rgb(81.960784%,81.960784%,81.960784%);fill-opacity:1;" d="M 121.234375 19 L 122.867188 19 C 122.867188 19 122.867188 15.988281 122.867188 15.863281 C 122.992188 15.863281 129.210938 15.863281 129.210938 15.863281 L 129.210938 0 L 121.234375 0 L 121.234375 3.261719 L 125.945312 3.261719 L 125.945312 12.605469 L 122.867188 12.605469 C 122.867188 12.480469 122.867188 9.46875 122.867188 9.46875 L 121.234375 9.46875 Z M 113.324219 0 L 121.234375 0 L 121.234375 3.261719 L 116.589844 3.261719 L 116.589844 12.605469 L 119.664062 12.605469 C 119.664062 12.480469 119.664062 9.46875 119.664062 9.46875 L 121.234375 9.46875 L 121.234375 19 L 119.664062 19 C 119.664062 19 119.664062 15.988281 119.664062 15.863281 C 119.539062 15.863281 113.324219 15.863281 113.324219 15.863281 Z M 113.324219 0 " /><path style=" stroke:none;fill-rule:evenodd;fill:rgb(81.960784%,81.960784%,81.960784%);fill-opacity:1;" d="M 69.175781 0 C 69.175781 0 69.175781 9.363281 69.175781 9.488281 L 66.230469 9.488281 L 66.230469 6.34375 L 63.101562 6.34375 L 63.101562 3.140625 C 63.101562 3.140625 60.160156 3.140625 60.035156 3.140625 C 60.035156 3.078125 60.035156 0 60.035156 0 L 56.847656 0 L 56.847656 15.894531 L 60.035156 15.894531 C 60.035156 15.894531 60.035156 6.535156 60.035156 6.410156 L 63.042969 6.410156 L 63.042969 9.613281 L 66.109375 9.613281 L 66.109375 12.753906 C 66.109375 12.753906 69.050781 12.753906 69.175781 12.753906 C 69.175781 12.816406 69.175781 15.894531 69.175781 15.894531 L 72.363281 15.894531 L 72.363281 0 Z M 69.175781 0 " /><path style=" stroke:none;fill-rule:evenodd;fill:rgb(81.960784%,81.960784%,81.960784%);fill-opacity:1;" d="M 53.742188 0 L 50.480469 0 L 50.480469 12.628906 L 41.121094 12.628906 L 41.121094 0 L 37.855469 0 L 37.855469 12.753906 L 40.996094 12.753906 L 40.996094 15.894531 L 50.542969 15.894531 L 50.542969 12.753906 L 53.742188 12.753906 Z M 53.742188 0 " /><path style=" stroke:none;fill-rule:evenodd;fill:rgb(81.960784%,81.960784%,81.960784%);fill-opacity:1;" d="M 147.828125 0 L 144.5625 0 L 144.5625 12.628906 L 135.207031 12.628906 L 135.207031 0 L 131.941406 0 L 131.941406 12.753906 L 135.144531 12.753906 L 135.144531 15.894531 L 144.6875 15.894531 L 144.6875 12.753906 L 147.828125 12.753906 Z M 147.828125 0 " /><path style=" stroke:none;fill-rule:evenodd;fill:rgb(81.960784%,81.960784%,81.960784%);fill-opacity:1;" d="M 15.886719 3.265625 L 15.886719 0 C 15.886719 0 6.53125 0 6.40625 0 L 0 0 L 0 6.410156 C 0 6.535156 0 9.613281 0 9.613281 C 0 9.613281 12.496094 9.613281 12.621094 9.613281 L 12.621094 12.628906 C 12.496094 12.628906 0 12.628906 0 12.628906 L 0 15.894531 L 15.886719 15.894531 L 15.886719 6.34375 C 15.886719 6.34375 3.390625 6.34375 3.265625 6.34375 L 3.265625 3.265625 Z M 15.886719 3.265625 " /><path style=" stroke:none;fill-rule:evenodd;fill:rgb(81.960784%,81.960784%,81.960784%);fill-opacity:1;" d="M 110.21875 3.265625 L 110.21875 0 C 110.21875 0 97.660156 0 97.597656 0 L 94.332031 0 L 94.332031 9.613281 C 94.332031 9.613281 106.828125 9.613281 106.953125 9.613281 L 106.953125 12.628906 C 106.828125 12.628906 94.332031 12.628906 94.332031 12.628906 L 94.332031 15.894531 L 110.21875 15.894531 L 110.21875 6.34375 C 110.21875 6.34375 97.660156 6.34375 97.597656 6.34375 L 97.597656 3.265625 Z M 110.21875 3.265625 " /><path style=" stroke:none;fill-rule:evenodd;fill:rgb(81.960784%,81.960784%,81.960784%);fill-opacity:1;" d="M 88.199219 3.140625 C 88.199219 3.078125 88.199219 0 88.199219 0 C 88.199219 0 85.867188 0 83.472656 0 L 83.472656 3.265625 L 88.074219 3.265625 L 88.074219 12.628906 L 83.472656 12.628906 L 83.472656 15.894531 L 88.199219 15.894531 C 88.199219 15.894531 88.199219 12.816406 88.199219 12.753906 C 88.324219 12.753906 91.351562 12.753906 91.351562 12.753906 L 91.351562 3.140625 C 91.351562 3.140625 88.324219 3.140625 88.199219 3.140625 Z M 83.472656 0 L 83.472656 3.265625 L 78.742188 3.265625 L 78.742188 12.628906 L 83.472656 12.628906 L 83.472656 15.894531 L 75.464844 15.894531 L 75.464844 0 L 78.742188 0 C 78.804688 0 81.136719 0 83.472656 0 Z M 83.472656 0 " /><path style=" stroke:none;fill-rule:evenodd;fill:rgb(81.960784%,81.960784%,81.960784%);fill-opacity:1;" d="M 158.84375 3.265625 C 161.355469 3.265625 163.492188 3.265625 163.554688 3.265625 L 163.554688 6.34375 C 163.492188 6.34375 161.355469 6.34375 158.84375 6.34375 L 158.84375 9.613281 L 163.554688 9.613281 L 163.554688 12.628906 L 158.84375 12.628906 L 158.84375 15.894531 L 166.820312 15.894531 L 166.820312 0 L 158.84375 0 Z M 150.929688 0 L 158.84375 0 L 158.84375 3.265625 C 155.265625 3.265625 150.929688 3.265625 150.929688 3.265625 Z M 158.84375 6.34375 L 158.84375 9.613281 L 154.195312 9.613281 L 154.195312 12.628906 L 158.84375 12.628906 L 158.84375 15.894531 L 150.929688 15.894531 L 150.929688 6.34375 C 150.929688 6.34375 155.265625 6.34375 158.84375 6.34375 Z M 158.84375 6.34375 " /></g></svg>