<svg width="421" height="39" viewBox="0 0 421 39" fill="none" xmlns="http://www.w3.org/2000/svg">
<path fill-rule="evenodd" clip-rule="evenodd" d="M420.333 19.7312V0H404.084V6.70604H413.627V13.0252H404.084V19.7312C411.435 19.7312 420.333 19.7312 420.333 19.7312ZM404.084 32.6274H420.333V25.9214C420.333 25.9214 411.435 25.9214 404.084 25.9214V32.6274ZM404.084 0V6.70604H394.412V13.0252H404.084V19.7312C398.925 19.7312 394.541 19.7312 394.412 19.7312V25.9214C394.541 25.9214 398.925 25.9214 404.084 25.9214V32.6274H387.706V0H404.084Z" fill="#D1D1D1"/>
<path fill-rule="evenodd" clip-rule="evenodd" d="M55.188 32.6274H71.3743V0H55.188V6.70604H64.6942V25.9214H55.188V32.6274ZM39.0017 0H55.188V6.70604H45.5533V25.9214H55.188V32.6274H39.0017V0Z" fill="#D1D1D1"/>
<path fill-rule="evenodd" clip-rule="evenodd" d="M381.331 19.7312V0H364.953V6.70604H374.625V13.0252H364.953V19.7312H368.177C368.177 19.8602 368.177 26.1793 368.177 26.1793H374.625V32.6274H381.331V25.9214H374.883V19.7312C375.012 19.7312 381.331 19.7312 381.331 19.7312ZM364.953 0V6.70604H355.41V13.0252H364.953V19.7312H355.41C355.41 19.8602 355.41 32.6274 355.41 32.6274H348.704V0H364.953Z" fill="#D1D1D1"/>
<path fill-rule="evenodd" clip-rule="evenodd" d="M248.976 39H252.329C252.329 39 252.329 32.8218 252.329 32.5644C252.587 32.5644 265.355 32.5644 265.355 32.5644V0H248.976V6.69307H258.648V25.8713H252.329C252.329 25.6139 252.329 19.4356 252.329 19.4356H248.976V39ZM232.727 0H248.976V6.69307H239.433V25.8713H245.752C245.752 25.6139 245.752 19.4356 245.752 19.4356H248.976V39H245.752C245.752 39 245.752 32.8218 245.752 32.5644C245.494 32.5644 232.727 32.5644 232.727 32.5644V0Z" fill="#D1D1D1"/>
<path fill-rule="evenodd" clip-rule="evenodd" d="M142.06 0C142.06 0 142.06 19.2154 142.06 19.4733H136.015V13.0252H129.592V6.44811C129.592 6.44811 123.547 6.44811 123.295 6.44811C123.295 6.31915 123.295 0 123.295 0H116.746V32.6274H123.295C123.295 32.6274 123.295 13.4121 123.295 13.1541H129.466V19.7312H135.763V26.1793C135.763 26.1793 141.808 26.1793 142.06 26.1793C142.06 26.3083 142.06 32.6274 142.06 32.6274H148.609V0H142.06Z" fill="#D1D1D1"/>
<path fill-rule="evenodd" clip-rule="evenodd" d="M110.372 0H103.666V25.9214H84.4502V0H77.7441V26.1793H84.1923V32.6274H103.795V26.1793H110.372V0Z" fill="#D1D1D1"/>
<path fill-rule="evenodd" clip-rule="evenodd" d="M303.587 0H296.881V25.9214H277.666V0H270.96V26.1793H277.537V32.6274H297.139V26.1793H303.587V0Z" fill="#D1D1D1"/>
<path fill-rule="evenodd" clip-rule="evenodd" d="M32.6274 6.70604V0C32.6274 0 13.4121 0 13.1541 0H0V6.44811V13.1541C0 13.4121 0 19.7312 0 19.7312C0 19.7312 25.6635 19.7312 25.9214 19.7312V25.9214C25.6635 25.9214 0 25.9214 0 25.9214V32.6274H32.6274V13.0252C32.6274 13.0252 6.96396 13.0252 6.70604 13.0252V6.70604H13.0252H32.6274Z" fill="#D1D1D1"/>
<path fill-rule="evenodd" clip-rule="evenodd" d="M226.353 6.70604V0C226.353 0 200.56 0 200.431 0H193.725V19.7312C193.725 19.7312 219.389 19.7312 219.647 19.7312V25.9214C219.389 25.9214 193.725 25.9214 193.725 25.9214V32.6274H226.353V13.0252C226.353 13.0252 200.56 13.0252 200.431 13.0252V6.70604H226.353Z" fill="#D1D1D1"/>
<path fill-rule="evenodd" clip-rule="evenodd" d="M181.132 6.44811C181.132 6.31915 181.132 0 181.132 0C181.132 0 176.342 0 171.422 0V6.70604H180.873V25.9214H171.422V32.6274H181.132C181.132 32.6274 181.132 26.3083 181.132 26.1793C181.391 26.1793 187.606 26.1793 187.606 26.1793V6.44811C187.606 6.44811 181.391 6.44811 181.132 6.44811ZM171.422 0V6.70604H161.711V25.9214H171.422V32.6274H154.979V0H161.711C161.841 0 166.631 0 171.422 0Z" fill="#D1D1D1"/>
<path fill-rule="evenodd" clip-rule="evenodd" d="M326.211 6.70604C331.369 6.70604 335.754 6.70604 335.883 6.70604V13.0252C335.754 13.0252 331.369 13.0252 326.211 13.0252V19.7312H335.883V25.9214H326.211V32.6274H342.589V0H326.211V6.70604ZM309.961 0H326.211V6.70604C318.86 6.70604 309.961 6.70604 309.961 6.70604V0ZM326.211 13.0252V19.7312H316.667V25.9214H326.211V32.6274H309.961V13.0252C309.961 13.0252 318.86 13.0252 326.211 13.0252Z" fill="#D1D1D1"/>
</svg>
