<svg width="15" height="9" viewBox="0 0 15 9" fill="none" xmlns="http://www.w3.org/2000/svg">
<path fill-rule="evenodd" clip-rule="evenodd" d="M0 4.4999L7.25773e-05 4.49977L5.23154e-05 4.49974H9.28401e-05C1.46679 1.87075 4.27573 0.0927734 7.49994 0.0927734C10.7241 0.0927734 13.5331 1.87075 14.9998 4.49974H14.9999L14.9999 4.49987L14.9999 4.4999H14.9998C13.5331 7.12889 10.7242 8.90687 7.49999 8.90687C4.27578 8.90687 1.46684 7.12889 0.000145155 4.4999H0ZM7.49979 6.58738C8.65271 6.58738 9.58733 5.65275 9.58733 4.49983C9.58733 3.34691 8.65271 2.41229 7.49979 2.41229C6.34687 2.41229 5.41224 3.34691 5.41224 4.49983C5.41224 5.65275 6.34687 6.58738 7.49979 6.58738Z" fill="black"/>
</svg>
