<svg width="15" height="9" viewBox="0 0 15 9" fill="none" xmlns="http://www.w3.org/2000/svg">
<path fill-rule="evenodd" clip-rule="evenodd" d="M0 4.4999C1.46667 1.87083 4.27566 0.0927734 7.49994 0.0927734C10.7242 0.0927734 13.5332 1.87083 14.9999 4.4999H9.58736C9.58736 4.49989 9.58736 4.49988 9.58736 4.49986C9.58736 3.34694 8.65273 2.41232 7.49981 2.41232C6.34689 2.41232 5.41227 3.34694 5.41227 4.49986C5.41227 4.49988 5.41227 4.49989 5.41227 4.4999H0ZM5.41227 4.49993L0.0001121 4.49993C1.46678 7.12901 4.27577 8.90706 7.50005 8.90706C10.7243 8.90706 13.5333 7.12901 15 4.49993L9.58736 4.49993C9.58732 5.65282 8.65271 6.58741 7.49981 6.58741C6.34691 6.58741 5.4123 5.65282 5.41227 4.49993Z" fill="white"/>
</svg>
