<svg
	xmlns="http://www.w3.org/2000/svg"
>
    <symbol id="arrow__down--big" viewBox="0 0 31 36">
        <path d="M13.2957 0H17.6202V27.456L27.3744 17.664L30.3535 20.592L15.506 35.52L0.5625 20.592L3.5416 17.664L13.2957 27.408V0Z" fill="white"/>
    </symbol>

     <symbol id="arrow__down--dark" viewBox="0 0 13 9">
        <path d="M6.5 8 1.737 1.25h9.526L6.5 8Z" fill="#ececec" stroke="#000"/>
    </symbol>

    <symbol id="arrow__down--light" viewBox="0 0 13 9">
        <path d="M6.5 8 1.737 1.25h9.526L6.5 8Z" fill="#353535" stroke="#C3C3C3"/>
    </symbol>

    <symbol id="arrow__up--dark" viewBox="0 0 13 9">
        <path d="M6.5 1L11.2631 8.5H1.73686L6.5 1Z" fill="black" stroke="#000"/>
    </symbol>

    <symbol id="arrow__up--light" viewBox="0 0 13 9">
        <path d="M6.5 1L11.2631 8.5H1.73686L6.5 1Z" fill="#C3C3C3" stroke="#C3C3C3"/>
    </symbol>

    <symbol id="clear__icon" viewBox="0 0 390 390">
        <path fill-rule="evenodd" clip-rule="evenodd" d="M0 0h390v390H0V0Zm132.627 124.352L65 193.168l67.627 68.816v-.123H331V124.352H132.627Zm94.923 42.452 26.311 26.312-28.291 28.291 10.751 10.751 28.291-28.292 28.292 28.292 10.751-10.751-28.292-28.291 26.311-26.311-10.751-10.751-26.311 26.311-26.311-26.311-10.751 10.75Z" fill="#000"/>
    </symbol>

     <symbol id="clear__icon--dark" viewBox="0 0 390 390">
         <path fill-rule="evenodd" clip-rule="evenodd" d="M0 0h390v390H0V0Zm132.627 124.352L65 193.168l67.627 68.816v-.123H331V124.352H132.627Zm94.923 42.452 26.311 26.312-28.291 28.291 10.751 10.751 28.291-28.292 28.292 28.292 10.751-10.751-28.292-28.291 26.311-26.311-10.751-10.751-26.311 26.311-26.311-26.311-10.751 10.75Z" fill="#C3C3C3"/>
    </symbol>


    <symbol id="close__icon--black" viewBox="0 0 11 11">
        <path
		fill-rule="evenodd"
		clip-rule="evenodd"
		d="M10.4948 1.37204L1.46795 10.3989L0.620361 9.55127L9.64718 0.524451L10.4948 1.37204Z"
		fill="black"
	/>
	    <path
	    	fill-rule="evenodd"
	    	clip-rule="evenodd"
	    	d="M10.1524 10.5213L1.12556 1.49444L1.97314 0.646851L11 9.67367L10.1524 10.5213Z"
	    	fill="black"
	    />
    </symbol>


    <symbol id="close__icon--white" viewBox="0 0 11 11">
        <path
		fill-rule="evenodd"
		clip-rule="evenodd"
		d="M10.4948 1.37204L1.46795 10.3989L0.620361 9.55127L9.64718 0.524451L10.4948 1.37204Z"
		fill="white"
	/>
	    <path
	    	fill-rule="evenodd"
	    	clip-rule="evenodd"
	    	d="M10.1524 10.5213L1.12556 1.49444L1.97314 0.646851L11 9.67367L10.1524 10.5213Z"
	    	fill="white"
	    />
    </symbol>


     <symbol id="closer--dark" viewBox="0 0 11 12">
       <path d="M10.6227 9.90254L9.16984 11.3554L0.000488281 2.22667L1.46349 0.763672L10.6227 9.90254ZM1.71705 11.2176L0.201041 9.70156L8.94765 0.912525L10.4742 2.43913L1.71705 11.2176Z" fill="#C3C3C3"/>
    </symbol>


    <symbol id="closer--light" viewBox="0 0 11 12">
       <path d="M10.6227 9.90254L9.16984 11.3554L0.000488281 2.22667L1.46349 0.763672L10.6227 9.90254ZM1.71705 11.2176L0.201041 9.70156L8.94765 0.912525L10.4742 2.43913L1.71705 11.2176Z" fill="#161616"/>
    </symbol>


     <symbol id="cross__icon--dark" viewBox="0 0 390 390">
        <path fill-rule="evenodd" clip-rule="evenodd" d="M390 0H0v390h390V0ZM210.5 79.5h-38v93h-93v38h93v100h38v-100h100v-38h-100v-93Z" fill="#C3C3C3"/>
    </symbol>

    <symbol id="cross__icon" viewBox="0 0 390 390">
        <path fill-rule="evenodd" clip-rule="evenodd" d="M390 0H0V390H390V0ZM210.5 79.5H172.5V172.5H79.5V210.5H172.5V310.5H210.5V210.5H310.5V172.5H210.5V79.5Z" fill="black"/>
    </symbol>


    <symbol id="downarrow__icon--dark" viewBox="0 0 390 390">
        <path fill-rule="evenodd" clip-rule="evenodd" d="M390 0H0V390H390V0ZM215 175.113V95H265C281.569 95 295 108.431 295 125V264C295 280.569 281.569 294 265 294H126C109.431 294 96 280.569 96 264V125C96 108.431 109.431 95 126 95H174V175.113H133.445L194.5 235.113L255.555 175.113H215Z" fill="#C3C3C3"/>
    </symbol>

    <symbol id="downarrow__icon" viewBox="0 0 390 390">
        <path fill-rule="evenodd" clip-rule="evenodd" d="M390 0H0V390H390V0ZM215 175.113V95H265C281.569 95 295 108.431 295 125V264C295 280.569 281.569 294 265 294H126C109.431 294 96 280.569 96 264V125C96 108.431 109.431 95 126 95H174V175.113H133.445L194.5 235.113L255.555 175.113H215Z" fill="black"/>
    </symbol>

    <symbol id="dragdrop__icon--white" viewBox="0 0 107 107">
        <path fill-rule="evenodd" clip-rule="evenodd" d="M51.4295 0H0.0981445V106.902H107V0H54.9878V23.1581L63.0137 14.8989L65.4649 17.3686L53.2482 29.9598L40.9524 17.3686L43.4037 14.8989L51.4295 23.1176V0Z" fill="white"/>
    </symbol>

    <symbol id="dragdrop__icon"  viewBox="0 0 157 157">
        <rect width="157" height="157" fill="#00A3FF"/>
        <rect width="157" height="157" fill="#00A3FF"/>
        <path d="M75.3871 0L80.6129 0V34.0108L92.4 21.8811L96 25.5081L78.0581 44L60 25.5081L63.6 21.8811L75.3871 33.9513V0Z" fill="white"/>
    </symbol>

    <symbol id="dragdrop__icon--mobile"  viewBox="0 0 75 75">
        <rect width="75" height="75" fill="#00A3FF"/>
        <rect width="75" height="75" fill="#00A3FF"/>
        <path d="M75.3871 0L80.6129 0V34.0108L92.4 21.8811L96 25.5081L78.0581 44L60 25.5081L63.6 21.8811L75.3871 33.9513V0Z" fill="white"/>
    </symbol>

    <symbol id="grid__icon--dark"  viewBox="0 0 18 18">
        <rect x="1" y="1" width="5.33333" height="5.33333" fill="none" stroke="black"/>
        <rect x="1" y="6.33331" width="5.33333" height="5.33333" fill="none" stroke="black"/>
        <rect x="1" y="11.6667" width="5.33333" height="5.33333" fill="none" stroke="black"/>
        <rect x="6.3335" y="1" width="5.33333" height="5.33333" fill="none" stroke="black"/>
        <rect x="6.3335" y="6.33331" width="5.33333" height="5.33333" fill="none" stroke="black"/>
        <rect x="6.3335" y="11.6667" width="5.33333" height="5.33333" fill="none" stroke="black"/>
        <rect x="11.6665" y="1" width="5.33333" height="5.33333" fill="none" stroke="black"/>
        <rect x="11.6665" y="6.33331" width="5.33333" height="5.33333" fill="none" stroke="black"/>
        <rect x="11.6665" y="11.6667" width="5.33333" height="5.33333" fill="none" stroke="black"/>
    </symbol>

    <symbol id="grid__icon--light"  viewBox="0 0 18 18">
        <rect x="1" y="1" width="5.33333" height="5.33333" stroke="white"/>
        <rect x="1" y="6.33331" width="5.33333" height="5.33333" stroke="white"/>
        <rect x="1" y="11.6667" width="5.33333" height="5.33333" stroke="white"/>
        <rect x="6.33325" y="1" width="5.33333" height="5.33333" stroke="white"/>
        <rect x="6.33325" y="6.33331" width="5.33333" height="5.33333" stroke="white"/>
        <rect x="6.33325" y="11.6667" width="5.33333" height="5.33333" stroke="white"/>
        <rect x="11.6667" y="1" width="5.33333" height="5.33333" stroke="white"/>
        <rect x="11.6667" y="6.33331" width="5.33333" height="5.33333" stroke="white"/>
        <rect x="11.6667" y="11.6667" width="5.33333" height="5.33333" stroke="white"/>
    </symbol>


    <symbol id="list__icon--dark" viewBox="0 0 16 13">
        <line x1="6" y1="1.5" x2="16" y2="1.5" stroke="black"/>
        <line x1="6" y1="6.5" x2="16" y2="6.5" stroke="black"/>
        <line x1="6" y1="11.5" x2="16" y2="11.5" stroke="black"/>
        <rect width="3" height="3" fill="black"/>
        <rect y="5" width="3" height="3" fill="black"/>
        <rect y="10" width="3" height="3" fill="black"/>
    </symbol>

    <symbol id="list__icon--light" viewBox="0 0 16 13">
        <line x1="6" y1="1.5" x2="16" y2="1.5" stroke="white"/>
        <line x1="6" y1="6.5" x2="16" y2="6.5" stroke="white"/>
        <line x1="6" y1="11.5" x2="16" y2="11.5" stroke="white"/>
        <rect width="3" height="3" fill="white"/>
        <rect y="5" width="3" height="3" fill="white"/>
        <rect y="10" width="3" height="3" fill="white"/>
    </symbol>


    <symbol id="lock__icon--login" viewBox="0 0 17 20">
        <path d="M8.5 0.083252C5.38333 0.083252 2.83333 2.63325 2.83333 5.74992V8.58325H0V19.9166H17V8.58325H14.1667V5.74992C14.1667 2.63325 11.6167 0.083252 8.5 0.083252ZM8.5 2.91659C10.0867 2.91659 11.3333 4.16325 11.3333 5.74992V8.58325H5.66667V5.74992C5.66667 4.16325 6.91333 2.91659 8.5 2.91659Z" fill="white"/>
    </symbol>

    <symbol id="lock__icon" viewBox="0 0 13 14">
        <path d="M6.5 0C4.3 0 2.5 1.8 2.5 4V6H0.5V14H12.5V6H10.5V4C10.5 1.8 8.7 0 6.5 0ZM6.5 2C7.62 2 8.5 2.88 8.5 4V6H4.5V4C4.5 2.88 5.38 2 6.5 2Z" fill="white"/>
    </symbol>

    <symbol id="mail__icon" viewBox="0 0 26 20" >
        <path d="M0 0.25V3.5L13 10L26 3.5V0.25H0ZM0 6.75V19.75H26V6.75L13 13.25L0 6.75Z" fill="white"/>
    </symbol>

    <symbol id="play__icon--dark" viewBox="0 0 390 390">
        <path fill-rule="evenodd" clip-rule="evenodd" d="M390 0H0V390H390V0ZM315 194.613C315 260.611 261.498 314.113 195.5 314.113C129.502 314.113 76 260.611 76 194.613C76 128.615 129.502 75.1133 195.5 75.1133C261.498 75.1133 315 128.615 315 194.613ZM257 194.613L163.25 248.74V140.487L257 194.613Z" fill="#C3C3C3"/>
    </symbol>

    <symbol id="play__icon" viewBox="0 0 390 390">
        <path fill-rule="evenodd" clip-rule="evenodd" d="M390 0H0V390H390V0ZM315 194.613C315 260.611 261.498 314.113 195.5 314.113C129.502 314.113 76 260.611 76 194.613C76 128.615 129.502 75.1133 195.5 75.1133C261.498 75.1133 315 128.615 315 194.613ZM257 194.613L163.25 248.74V140.487L257 194.613Z" fill="black"/>
    </symbol>

    <symbol id="send__icon--dark" viewBox="0 0 390 391">
        <path fill-rule="evenodd" clip-rule="evenodd" d="M390 0.113281H0V390.113H390V0.113281ZM236.769 285.113L285 105.113L105 153.344L191.266 199.018L236.769 285.113Z" fill="#C3C3C3"/>
    </symbol>

    <symbol id="send__icon" viewBox="0 0 390 391">
        <path fill-rule="evenodd" clip-rule="evenodd" d="M390 0.113281H0V390.113H390V0.113281ZM236.769 285.113L285 105.113L105 153.344L191.266 199.018L236.769 285.113Z" fill="black"/>
    </symbol>


    <symbol id="soundsquare__logo--mobile" viewBox="0 0 205 19">
        <path style=" stroke:none;fill-rule:evenodd;fill:rgb(81.960784%,81.960784%,81.960784%);fill-opacity:1;" d="M 204.675781 9.613281 L 204.675781 0 L 196.761719 0 L 196.761719 3.265625 L 201.410156 3.265625 L 201.410156 6.34375 L 196.761719 6.34375 L 196.761719 9.613281 C 200.34375 9.613281 204.675781 9.613281 204.675781 9.613281 Z M 196.761719 15.894531 L 204.675781 15.894531 L 204.675781 12.628906 C 204.675781 12.628906 200.34375 12.628906 196.761719 12.628906 Z M 196.761719 0 L 196.761719 3.265625 L 192.054688 3.265625 L 192.054688 6.34375 L 196.761719 6.34375 L 196.761719 9.613281 C 194.25 9.613281 192.117188 9.613281 192.054688 9.613281 L 192.054688 12.628906 C 192.117188 12.628906 194.25 12.628906 196.761719 12.628906 L 196.761719 15.894531 L 188.789062 15.894531 L 188.789062 0 Z M 196.761719 0 " /><path style=" stroke:none;fill-rule:evenodd;fill:rgb(81.960784%,81.960784%,81.960784%);fill-opacity:1;" d="M 26.871094 15.894531 L 34.753906 15.894531 L 34.753906 0 L 26.871094 0 L 26.871094 3.265625 L 31.5 3.265625 L 31.5 12.628906 L 26.871094 12.628906 Z M 18.992188 0 L 26.871094 0 L 26.871094 3.265625 L 22.179688 3.265625 L 22.179688 12.628906 L 26.871094 12.628906 L 26.871094 15.894531 L 18.992188 15.894531 Z M 18.992188 0 " /><path style=" stroke:none;fill-rule:evenodd;fill:rgb(81.960784%,81.960784%,81.960784%);fill-opacity:1;" d="M 185.683594 9.613281 L 185.683594 0 L 177.707031 0 L 177.707031 3.265625 L 182.417969 3.265625 L 182.417969 6.34375 L 177.707031 6.34375 L 177.707031 9.613281 L 179.277344 9.613281 C 179.277344 9.675781 179.277344 12.753906 179.277344 12.753906 L 182.417969 12.753906 L 182.417969 15.894531 L 185.683594 15.894531 L 185.683594 12.628906 L 182.542969 12.628906 L 182.542969 9.613281 C 182.605469 9.613281 185.683594 9.613281 185.683594 9.613281 Z M 177.707031 0 L 177.707031 3.265625 L 173.0625 3.265625 L 173.0625 6.34375 L 177.707031 6.34375 L 177.707031 9.613281 L 173.0625 9.613281 C 173.0625 9.675781 173.0625 15.894531 173.0625 15.894531 L 169.796875 15.894531 L 169.796875 0 Z M 177.707031 0 " /><path style=" stroke:none;fill-rule:evenodd;fill:rgb(81.960784%,81.960784%,81.960784%);fill-opacity:1;" d="M 121.234375 19 L 122.867188 19 C 122.867188 19 122.867188 15.988281 122.867188 15.863281 C 122.992188 15.863281 129.210938 15.863281 129.210938 15.863281 L 129.210938 0 L 121.234375 0 L 121.234375 3.261719 L 125.945312 3.261719 L 125.945312 12.605469 L 122.867188 12.605469 C 122.867188 12.480469 122.867188 9.46875 122.867188 9.46875 L 121.234375 9.46875 Z M 113.324219 0 L 121.234375 0 L 121.234375 3.261719 L 116.589844 3.261719 L 116.589844 12.605469 L 119.664062 12.605469 C 119.664062 12.480469 119.664062 9.46875 119.664062 9.46875 L 121.234375 9.46875 L 121.234375 19 L 119.664062 19 C 119.664062 19 119.664062 15.988281 119.664062 15.863281 C 119.539062 15.863281 113.324219 15.863281 113.324219 15.863281 Z M 113.324219 0 " /><path style=" stroke:none;fill-rule:evenodd;fill:rgb(81.960784%,81.960784%,81.960784%);fill-opacity:1;" d="M 69.175781 0 C 69.175781 0 69.175781 9.363281 69.175781 9.488281 L 66.230469 9.488281 L 66.230469 6.34375 L 63.101562 6.34375 L 63.101562 3.140625 C 63.101562 3.140625 60.160156 3.140625 60.035156 3.140625 C 60.035156 3.078125 60.035156 0 60.035156 0 L 56.847656 0 L 56.847656 15.894531 L 60.035156 15.894531 C 60.035156 15.894531 60.035156 6.535156 60.035156 6.410156 L 63.042969 6.410156 L 63.042969 9.613281 L 66.109375 9.613281 L 66.109375 12.753906 C 66.109375 12.753906 69.050781 12.753906 69.175781 12.753906 C 69.175781 12.816406 69.175781 15.894531 69.175781 15.894531 L 72.363281 15.894531 L 72.363281 0 Z M 69.175781 0 " /><path style=" stroke:none;fill-rule:evenodd;fill:rgb(81.960784%,81.960784%,81.960784%);fill-opacity:1;" d="M 53.742188 0 L 50.480469 0 L 50.480469 12.628906 L 41.121094 12.628906 L 41.121094 0 L 37.855469 0 L 37.855469 12.753906 L 40.996094 12.753906 L 40.996094 15.894531 L 50.542969 15.894531 L 50.542969 12.753906 L 53.742188 12.753906 Z M 53.742188 0 " /><path style=" stroke:none;fill-rule:evenodd;fill:rgb(81.960784%,81.960784%,81.960784%);fill-opacity:1;" d="M 147.828125 0 L 144.5625 0 L 144.5625 12.628906 L 135.207031 12.628906 L 135.207031 0 L 131.941406 0 L 131.941406 12.753906 L 135.144531 12.753906 L 135.144531 15.894531 L 144.6875 15.894531 L 144.6875 12.753906 L 147.828125 12.753906 Z M 147.828125 0 " /><path style=" stroke:none;fill-rule:evenodd;fill:rgb(81.960784%,81.960784%,81.960784%);fill-opacity:1;" d="M 15.886719 3.265625 L 15.886719 0 C 15.886719 0 6.53125 0 6.40625 0 L 0 0 L 0 6.410156 C 0 6.535156 0 9.613281 0 9.613281 C 0 9.613281 12.496094 9.613281 12.621094 9.613281 L 12.621094 12.628906 C 12.496094 12.628906 0 12.628906 0 12.628906 L 0 15.894531 L 15.886719 15.894531 L 15.886719 6.34375 C 15.886719 6.34375 3.390625 6.34375 3.265625 6.34375 L 3.265625 3.265625 Z M 15.886719 3.265625 " /><path style=" stroke:none;fill-rule:evenodd;fill:rgb(81.960784%,81.960784%,81.960784%);fill-opacity:1;" d="M 110.21875 3.265625 L 110.21875 0 C 110.21875 0 97.660156 0 97.597656 0 L 94.332031 0 L 94.332031 9.613281 C 94.332031 9.613281 106.828125 9.613281 106.953125 9.613281 L 106.953125 12.628906 C 106.828125 12.628906 94.332031 12.628906 94.332031 12.628906 L 94.332031 15.894531 L 110.21875 15.894531 L 110.21875 6.34375 C 110.21875 6.34375 97.660156 6.34375 97.597656 6.34375 L 97.597656 3.265625 Z M 110.21875 3.265625 " /><path style=" stroke:none;fill-rule:evenodd;fill:rgb(81.960784%,81.960784%,81.960784%);fill-opacity:1;" d="M 88.199219 3.140625 C 88.199219 3.078125 88.199219 0 88.199219 0 C 88.199219 0 85.867188 0 83.472656 0 L 83.472656 3.265625 L 88.074219 3.265625 L 88.074219 12.628906 L 83.472656 12.628906 L 83.472656 15.894531 L 88.199219 15.894531 C 88.199219 15.894531 88.199219 12.816406 88.199219 12.753906 C 88.324219 12.753906 91.351562 12.753906 91.351562 12.753906 L 91.351562 3.140625 C 91.351562 3.140625 88.324219 3.140625 88.199219 3.140625 Z M 83.472656 0 L 83.472656 3.265625 L 78.742188 3.265625 L 78.742188 12.628906 L 83.472656 12.628906 L 83.472656 15.894531 L 75.464844 15.894531 L 75.464844 0 L 78.742188 0 C 78.804688 0 81.136719 0 83.472656 0 Z M 83.472656 0 " /><path style=" stroke:none;fill-rule:evenodd;fill:rgb(81.960784%,81.960784%,81.960784%);fill-opacity:1;" d="M 158.84375 3.265625 C 161.355469 3.265625 163.492188 3.265625 163.554688 3.265625 L 163.554688 6.34375 C 163.492188 6.34375 161.355469 6.34375 158.84375 6.34375 L 158.84375 9.613281 L 163.554688 9.613281 L 163.554688 12.628906 L 158.84375 12.628906 L 158.84375 15.894531 L 166.820312 15.894531 L 166.820312 0 L 158.84375 0 Z M 150.929688 0 L 158.84375 0 L 158.84375 3.265625 C 155.265625 3.265625 150.929688 3.265625 150.929688 3.265625 Z M 158.84375 6.34375 L 158.84375 9.613281 L 154.195312 9.613281 L 154.195312 12.628906 L 158.84375 12.628906 L 158.84375 15.894531 L 150.929688 15.894531 L 150.929688 6.34375 C 150.929688 6.34375 155.265625 6.34375 158.84375 6.34375 Z M 158.84375 6.34375 " /></g>
     </symbol>

     <symbol id="soundsquare__logo" viewBox="0 0 421 39">
        <path fill-rule="evenodd" clip-rule="evenodd" d="M420.333 19.7312V0H404.084V6.70604H413.627V13.0252H404.084V19.7312C411.435 19.7312 420.333 19.7312 420.333 19.7312ZM404.084 32.6274H420.333V25.9214C420.333 25.9214 411.435 25.9214 404.084 25.9214V32.6274ZM404.084 0V6.70604H394.412V13.0252H404.084V19.7312C398.925 19.7312 394.541 19.7312 394.412 19.7312V25.9214C394.541 25.9214 398.925 25.9214 404.084 25.9214V32.6274H387.706V0H404.084Z" fill="#D1D1D1"/>
        <path fill-rule="evenodd" clip-rule="evenodd" d="M55.188 32.6274H71.3743V0H55.188V6.70604H64.6942V25.9214H55.188V32.6274ZM39.0017 0H55.188V6.70604H45.5533V25.9214H55.188V32.6274H39.0017V0Z" fill="#D1D1D1"/>
        <path fill-rule="evenodd" clip-rule="evenodd" d="M381.331 19.7312V0H364.953V6.70604H374.625V13.0252H364.953V19.7312H368.177C368.177 19.8602 368.177 26.1793 368.177 26.1793H374.625V32.6274H381.331V25.9214H374.883V19.7312C375.012 19.7312 381.331 19.7312 381.331 19.7312ZM364.953 0V6.70604H355.41V13.0252H364.953V19.7312H355.41C355.41 19.8602 355.41 32.6274 355.41 32.6274H348.704V0H364.953Z" fill="#D1D1D1"/>
        <path fill-rule="evenodd" clip-rule="evenodd" d="M248.976 39H252.329C252.329 39 252.329 32.8218 252.329 32.5644C252.587 32.5644 265.355 32.5644 265.355 32.5644V0H248.976V6.69307H258.648V25.8713H252.329C252.329 25.6139 252.329 19.4356 252.329 19.4356H248.976V39ZM232.727 0H248.976V6.69307H239.433V25.8713H245.752C245.752 25.6139 245.752 19.4356 245.752 19.4356H248.976V39H245.752C245.752 39 245.752 32.8218 245.752 32.5644C245.494 32.5644 232.727 32.5644 232.727 32.5644V0Z" fill="#D1D1D1"/>
        <path fill-rule="evenodd" clip-rule="evenodd" d="M142.06 0C142.06 0 142.06 19.2154 142.06 19.4733H136.015V13.0252H129.592V6.44811C129.592 6.44811 123.547 6.44811 123.295 6.44811C123.295 6.31915 123.295 0 123.295 0H116.746V32.6274H123.295C123.295 32.6274 123.295 13.4121 123.295 13.1541H129.466V19.7312H135.763V26.1793C135.763 26.1793 141.808 26.1793 142.06 26.1793C142.06 26.3083 142.06 32.6274 142.06 32.6274H148.609V0H142.06Z" fill="#D1D1D1"/>
        <path fill-rule="evenodd" clip-rule="evenodd" d="M110.372 0H103.666V25.9214H84.4502V0H77.7441V26.1793H84.1923V32.6274H103.795V26.1793H110.372V0Z" fill="#D1D1D1"/>
        <path fill-rule="evenodd" clip-rule="evenodd" d="M303.587 0H296.881V25.9214H277.666V0H270.96V26.1793H277.537V32.6274H297.139V26.1793H303.587V0Z" fill="#D1D1D1"/>
        <path fill-rule="evenodd" clip-rule="evenodd" d="M32.6274 6.70604V0C32.6274 0 13.4121 0 13.1541 0H0V6.44811V13.1541C0 13.4121 0 19.7312 0 19.7312C0 19.7312 25.6635 19.7312 25.9214 19.7312V25.9214C25.6635 25.9214 0 25.9214 0 25.9214V32.6274H32.6274V13.0252C32.6274 13.0252 6.96396 13.0252 6.70604 13.0252V6.70604H13.0252H32.6274Z" fill="#D1D1D1"/>
        <path fill-rule="evenodd" clip-rule="evenodd" d="M226.353 6.70604V0C226.353 0 200.56 0 200.431 0H193.725V19.7312C193.725 19.7312 219.389 19.7312 219.647 19.7312V25.9214C219.389 25.9214 193.725 25.9214 193.725 25.9214V32.6274H226.353V13.0252C226.353 13.0252 200.56 13.0252 200.431 13.0252V6.70604H226.353Z" fill="#D1D1D1"/>
        <path fill-rule="evenodd" clip-rule="evenodd" d="M181.132 6.44811C181.132 6.31915 181.132 0 181.132 0C181.132 0 176.342 0 171.422 0V6.70604H180.873V25.9214H171.422V32.6274H181.132C181.132 32.6274 181.132 26.3083 181.132 26.1793C181.391 26.1793 187.606 26.1793 187.606 26.1793V6.44811C187.606 6.44811 181.391 6.44811 181.132 6.44811ZM171.422 0V6.70604H161.711V25.9214H171.422V32.6274H154.979V0H161.711C161.841 0 166.631 0 171.422 0Z" fill="#D1D1D1"/>
        <path fill-rule="evenodd" clip-rule="evenodd" d="M326.211 6.70604C331.369 6.70604 335.754 6.70604 335.883 6.70604V13.0252C335.754 13.0252 331.369 13.0252 326.211 13.0252V19.7312H335.883V25.9214H326.211V32.6274H342.589V0H326.211V6.70604ZM309.961 0H326.211V6.70604C318.86 6.70604 309.961 6.70604 309.961 6.70604V0ZM326.211 13.0252V19.7312H316.667V25.9214H326.211V32.6274H309.961V13.0252C309.961 13.0252 318.86 13.0252 326.211 13.0252Z" fill="#D1D1D1"/>
     </symbol>

     <symbol id="subtract--black" viewBox="0 0 15 9">
        <path fill-rule="evenodd" clip-rule="evenodd" d="M0 4.4999L7.25773e-05 4.49977L5.23154e-05 4.49974H9.28401e-05C1.46679 1.87075 4.27573 0.0927734 7.49994 0.0927734C10.7241 0.0927734 13.5331 1.87075 14.9998 4.49974H14.9999L14.9999 4.49987L14.9999 4.4999H14.9998C13.5331 7.12889 10.7242 8.90687 7.49999 8.90687C4.27578 8.90687 1.46684 7.12889 0.000145155 4.4999H0ZM7.49979 6.58738C8.65271 6.58738 9.58733 5.65275 9.58733 4.49983C9.58733 3.34691 8.65271 2.41229 7.49979 2.41229C6.34687 2.41229 5.41224 3.34691 5.41224 4.49983C5.41224 5.65275 6.34687 6.58738 7.49979 6.58738Z" fill="black"/>
    </symbol>

    <symbol id="passcover--white" viewBox="0 0 15 9">
        <path fill-rule="evenodd" clip-rule="evenodd" d="M0 4.4999C1.46667 1.87083 4.27566 0.0927734 7.49994 0.0927734C10.7242 0.0927734 13.5332 1.87083 14.9999 4.4999H9.58736C9.58736 4.49989 9.58736 4.49988 9.58736 4.49986C9.58736 3.34694 8.65273 2.41232 7.49981 2.41232C6.34689 2.41232 5.41227 3.34694 5.41227 4.49986C5.41227 4.49988 5.41227 4.49989 5.41227 4.4999H0ZM5.41227 4.49993L0.0001121 4.49993C1.46678 7.12901 4.27577 8.90706 7.50005 8.90706C10.7243 8.90706 13.5333 7.12901 15 4.49993L9.58736 4.49993C9.58732 5.65282 8.65271 6.58741 7.49981 6.58741C6.34691 6.58741 5.4123 5.65282 5.41227 4.49993Z" fill="white"/>
    </symbol>

    <symbol id="passcover--black" viewBox="0 0 15 9">
        <path fill-rule="evenodd" clip-rule="evenodd" d="M0 4.4999C1.46667 1.87083 4.27566 0.0927734 7.49994 0.0927734C10.7242 0.0927734 13.5332 1.87083 14.9999 4.4999H9.58736C9.58736 4.49989 9.58736 4.49988 9.58736 4.49986C9.58736 3.34694 8.65273 2.41232 7.49981 2.41232C6.34689 2.41232 5.41227 3.34694 5.41227 4.49986C5.41227 4.49988 5.41227 4.49989 5.41227 4.4999H0ZM5.41227 4.49993L0.0001121 4.49993C1.46678 7.12901 4.27577 8.90706 7.50005 8.90706C10.7243 8.90706 13.5333 7.12901 15 4.49993L9.58736 4.49993C9.58732 5.65282 8.65271 6.58741 7.49981 6.58741C6.34691 6.58741 5.4123 5.65282 5.41227 4.49993Z" fill="black"/>
    </symbol>

    <symbol id="upload__success" viewBox="0 0 157 157">
        <rect width="157" height="157" fill="white"/>
        <rect width="157" height="157" fill="white"/>
        <rect x="52.8253" y="73.1418" width="34.2934" height="9.55717" transform="rotate(45 52.8253 73.1418)" fill="#00A3FF"/>
        <rect x="118.149" y="56.3164" width="58.0881" height="9.55717" transform="rotate(135 118.149 56.3164)" fill="#00A3FF"/>
    </symbol>

    <symbol id="zoomin__icon--dark" viewBox="0 0 24 23">
        <path d="M24 9.59444V13.4056L0 13.4589V9.62109L24 9.59444ZM14.0441 23H10.0672L10.0116 0H14.0162L14.0441 23Z" fill="#C3C3C3"/>
    </symbol>

    <symbol id="zoomin__icon--light" viewBox="0 0 24 23">
        <path d="M24 9.59444V13.4056L0 13.4589V9.62109L24 9.59444ZM14.0441 23H10.0672L10.0116 0H14.0162L14.0441 23Z" fill="#161616"/>
    </symbol>

    <symbol id="zoomout__icon--dark" viewBox="0 0 24 5">
        <path d="M24 0.594421V4.40555L0 4.45885V0.621076L24 0.594421ZM14.0441 4.42766H10.0672L10.0116 0.60522H14.0162L14.0441 4.42766Z" fill="#C3C3C3"/>
    </symbol>

     <symbol id="zoomout__icon--light" viewBox="0 0 24 5">
        <path d="M24 0.594421V4.40555L0 4.45885V0.621076L24 0.594421ZM14.0441 4.42766H10.0672L10.0116 0.60522H14.0162L14.0441 4.42766Z" fill="#161616"/>
    </symbol>

</svg>
